<?xml version="1.0" encoding="UTF-8"?>
<svg xmlns="http://www.w3.org/2000/svg" width="1200" height="400" viewBox="0 0 1200 400">
  <style><![CDATA[
    .bg-charcoal { fill: #111216; }
    .stroke-cyan { stroke: #0BC5EA; }
    .fill-cyan { fill: #0BC5EA; }
    .fill-orange { fill: #FF6A00; }
    .stroke-orange { stroke: #FF6A00; }
    .fill-carbon { fill: #1F232B; }
    .stroke-carbon { stroke: #1F232B; }
    .fill-white { fill: #FFFFFF; }
    .stroke-white { stroke: #FFFFFF; }
    .stroke-2 { stroke-width: 2; }
    .stroke-3 { stroke-width: 3; }
    .stroke-4 { stroke-width: 4; }
    .round { stroke-linecap: round; stroke-linejoin: round; }
    .label { font-family: 'Poppins','Montserrat','Arial',sans-serif; font-weight: 600; letter-spacing: 0.5px; }
    .sub { font-family: 'Poppins','Montserrat','Arial',sans-serif; font-weight: 400; letter-spacing: 0.4px; }
]]></style>
  <rect width="1200" height="400" class="bg-charcoal"/>
  <!-- emblem -->
  <g transform="translate(60,60)">
    <rect x="0" y="0" width="280" height="280" rx="24" class="fill-carbon"/>
    <!-- wireframe cube -->
    <g transform="translate(40,30)" class="round" fill="none" stroke="#66E3FF" stroke-width="3">
      <!-- front square -->
      <rect x="20" y="50" width="120" height="120"/>
      <!-- back square -->
      <rect x="80" y="10" width="120" height="120"/>
      <!-- connector lines -->
      <line x1="20" y1="50" x2="80" y2="10"/>
      <line x1="140" y1="50" x2="200" y2="10"/>
      <line x1="20" y1="170" x2="80" y2="130"/>
      <line x1="140" y1="170" x2="200" y2="130"/>
    </g>
    <!-- scan sweep -->
    <g transform="translate(40,30)" opacity="0.6">
      <rect x="0" y="90" width="240" height="20" class="fill-cyan"/>
    </g>
    <!-- EB monogram in cube -->
    <g transform="translate(100,120)">
      <path d="M0,0 h80 v18 h-60 v18 h50 v18 h-50 v18 h60 v18 h-80z" class="fill-white"/>
      <path d="M92,0 h44 c26,0 44,12 44,36 c0,14-6,24-18,30 c16,6 24,16 24,32 c0,26-20,40-50,40 h-44 v-18 h40 c18,0 30-6 30-20 c0-12-10-18-30-18 h-22 v-18 h20 c18,0 28-6 28-18 c0-12-10-18-26-18 h-40 z" class="fill-white"/>
    </g>
  </g>

  <!-- wordmark -->
  <g transform="translate(380,120)">
    <text x="0" y="0" font-size="72" class="label fill-white">EB Design Werks</text>
    <text x="0" y="52" font-size="22" class="sub" fill="#9FB4BE">3D Scanning • CAD • 3D Printing</text>
  </g>
</svg>
