<?xml version="1.0" encoding="UTF-8"?>
<svg xmlns="http://www.w3.org/2000/svg" width="512" height="512" viewBox="0 0 512 512">
  <style><![CDATA[
    .bg-charcoal { fill: #111216; }
    .stroke-cyan { stroke: #0BC5EA; }
    .fill-cyan { fill: #0BC5EA; }
    .fill-orange { fill: #FF6A00; }
    .stroke-orange { stroke: #FF6A00; }
    .fill-carbon { fill: #1F232B; }
    .stroke-carbon { stroke: #1F232B; }
    .fill-white { fill: #FFFFFF; }
    .stroke-white { stroke: #FFFFFF; }
    .stroke-2 { stroke-width: 2; }
    .stroke-3 { stroke-width: 3; }
    .stroke-4 { stroke-width: 4; }
    .round { stroke-linecap: round; stroke-linejoin: round; }
    .label { font-family: 'Poppins','Montserrat','Arial',sans-serif; font-weight: 600; letter-spacing: 0.5px; }
    .sub { font-family: 'Poppins','Montserrat','Arial',sans-serif; font-weight: 400; letter-spacing: 0.4px; }
]]></style>
  <rect width="512" height="512" rx="56" class="fill-carbon"/>
  <g transform="translate(96,80)" class="round" fill="none" stroke="#66E3FF" stroke-width="6">
    <rect x="32" y="96" width="160" height="160"/>
    <rect x="144" y="48" width="160" height="160"/>
    <line x1="32" y1="96" x2="144" y2="48"/>
    <line x1="192" y1="96" x2="304" y2="48"/>
    <line x1="32" y1="256" x2="144" y2="208"/>
    <line x1="192" y1="256" x2="304" y2="208"/>
  </g>
  <rect x="96" y="240" width="320" height="28" class="fill-cyan" opacity="0.7"/>
  <g transform="translate(160,192) scale(1.3)">
    <path d="M0,0 h80 v18 h-60 v18 h50 v18 h-50 v18 h60 v18 h-80z" class="fill-white"/>
    <path d="M92,0 h44 c26,0 44,12 44,36 c0,14-6,24-18,30 c16,6 24,16 24,32 c0,26-20,40-50,40 h-44 v-18 h40 c18,0 30-6 30-20 c0-12-10-18-30-18 h-22 v-18 h20 c18,0 28-6 28-18 c0-12-10-18-26-18 h-40 z" class="fill-white"/>
  </g>
</svg>
